<svg xmlns="http://www.w3.org/2000/svg" width="18" height="18" viewBox="0 0 18 18">
  <g fill="#3E3E3C" transform="translate(1 1)">
    <path d="M8,-0.5 C3.30557963,-0.5 -0.5,3.30557963 -0.5,8 C-0.5,12.6944204 3.30557963,16.5 8,16.5 C12.6944204,16.5 16.5,12.6944204 16.5,8 C16.5,3.30557963 12.6944204,-0.5 8,-0.5 Z M8,0.5 C12.1421356,0.5 15.5,3.85786438 15.5,8 C15.5,12.1421356 12.1421356,15.5 8,15.5 C3.85786438,15.5 0.5,12.1421356 0.5,8 C0.5,3.85786438 3.85786438,0.5 8,0.5 Z"/>
    <path d="M7.64644661,4.44644661 C7.84170876,4.25118446 8.15829124,4.25118446 8.35355339,4.44644661 C8.52711974,4.62001296 8.54640489,4.88943736 8.41140884,5.0843055 L8.35355339,5.15355339 L5.507,8 L8.35355339,10.8464466 C8.52711974,11.020013 8.54640489,11.2894374 8.41140884,11.4843055 L8.35355339,11.5535534 C8.17998704,11.7271197 7.91056264,11.7464049 7.7156945,11.6114088 L7.64644661,11.5535534 L4.44644661,8.35355339 C4.27288026,8.17998704 4.25359511,7.91056264 4.38859116,7.7156945 L4.44644661,7.64644661 L7.64644661,4.44644661 Z"/>
    <path d="M11.2,7.5 C11.4761424,7.5 11.7,7.72385763 11.7,8 C11.7,8.24545989 11.5231248,8.44960837 11.2898756,8.49194433 L11.2,8.5 L4.8,8.5 C4.52385763,8.5 4.3,8.27614237 4.3,8 C4.3,7.75454011 4.47687516,7.55039163 4.71012437,7.50805567 L4.8,7.5 L11.2,7.5 Z"/>
  </g>
</svg>
