<svg xmlns="http://www.w3.org/2000/svg" width="11" height="14" viewBox="0 0 11 14">
  <g fill="#706E6B" transform="rotate(-90 6.8 7)">
    <path d="M5.78163874,0.626798661 C5.98775215,0.443027406 6.30381612,0.461139299 6.48758738,0.667252708 C6.6509396,0.850464626 6.65477922,1.12055106 6.50885574,1.30737682 L6.44713333,1.37320134 L1.764,5.548 L6.43517835,9.45429387 C6.62345891,9.61177717 6.66657108,9.87842819 6.54939587,10.0845046 L6.49791216,10.1586123 C6.34042887,10.3468929 6.07377785,10.390005 5.86770142,10.2728298 L5.79359372,10.2213461 L0.679207685,5.94352613 C0.471171521,5.76951868 0.443588686,5.46738718 0.599976699,5.25978398 L0.667252708,5.18679866 L5.78163874,0.626798661 Z"/>
    <path d="M12.52,5.06 C12.7961424,5.06 13.02,5.28385763 13.02,5.56 C13.02,5.80545989 12.8431248,6.00960837 12.6098756,6.05194433 L12.52,6.06 L1,6.06 C0.723857625,6.06 0.5,5.83614237 0.5,5.56 C0.5,5.31454011 0.676875161,5.11039163 0.910124368,5.06805567 L1,5.06 L12.52,5.06 Z"/>
  </g>
</svg>
