<svg xmlns="http://www.w3.org/2000/svg" xmlns:xlink="http://www.w3.org/1999/xlink" width="24" height="24" viewBox="0 0 24 24">
  <defs>
    <rect id="liked-a" width="24" height="24" x="0" y="0" rx="4"/>
  </defs>
  <g fill="none" fill-rule="evenodd">
    <mask id="liked-b" fill="#fff">
      <use xlink:href="#liked-a"/>
    </mask>
    <use fill="#ED2633" xlink:href="#liked-a"/>
    <g fill="#FFF" fill-rule="nonzero" mask="url(#liked-b)">
      <path d="M9.67903226,14.2854839 C9.02124194,14.9709677 7.9516129,14.9709677 7.29354839,14.2854839 C5.31935484,12.1744677 1.53548387,8.14382258 1.53548387,8.11612903 C-0.164516129,6.33387097 -0.164516129,3.4 1.53548387,1.61774194 C2.35806452,0.740322581 3.45483871,0.274193548 4.63387097,0.274193548 C5.81290323,0.274193548 6.90967742,0.740322581 7.73225806,1.61774194 L8.06129032,2.02903226 C8.28064516,2.30322581 8.71935484,2.30322581 8.93870968,2.02903226 L9.21290323,1.67258065 C9.24032258,1.64516129 9.24032258,1.64516129 9.26774194,1.61774194 C10.1180161,0.712903226 11.2147903,0.246774194 12.366129,0.246774194 C13.5454355,0.246774194 14.6422097,0.712903226 15.4647903,1.59032258 C17.1645161,3.37258065 17.1645161,6.30645161 15.4647903,8.08870968 C15.4370968,8.14354839 11.6806452,12.1741935 9.67903226,14.2854839 Z" transform="translate(3.5 4.597)"/>
    </g>
  </g>
</svg>
