<svg xmlns="http://www.w3.org/2000/svg" width="161" height="24" viewBox="0 0 161 24">
  <g fill="none">
    <path fill="#EF233C" d="M24,12 C24,5.37255863 18.6274414,0 12,0 C5.37255863,0 0,5.37255863 0,12 C0,18.6274414 5.37255863,24 12,24 L133.230769,24 L133.230769,22 L18.625,22 C21.9799805,19.7788086 23.9985351,16.0239258 24,12 Z M17.8779297,20.090332 C16.5375976,21.0639649 14.6611327,20.7670899 13.6875,19.4262695 C12.7138672,18.0859375 13.0107422,16.209961 14.3510742,15.2358399 C15.6918945,14.262207 17.5678711,14.559082 18.5415039,15.8999024 C19.515625,17.2402344 19.2182617,19.116211 17.8779297,20.090332 Z M17.7304688,6.98388675 C19.3061524,6.47167975 20.9985351,7.33398437 21.5107422,8.909668 C22.022461,10.4858399 21.1601562,12.1782226 19.5844726,12.6899414 C18.008789,13.2021485 16.3164062,12.3398438 15.8041993,10.7641601 C15.2924805,9.1884765 16.1547851,7.4956055 17.7304688,6.98388675 Z M12,2 C13.6567383,2 15,3.34326175 15,5 C15,6.65673825 13.6567383,8 12,8 C10.3432617,8 9,6.65673825 9,5 C9,3.34326175 10.3432617,2 12,2 Z M2.48925775,8.909668 C3.00146487,7.33398438 4.69384762,6.47167975 6.26953125,6.9833985 C7.84521487,7.4956055 8.7075195,9.18798825 8.19580075,10.7636719 C7.68359375,12.3393555 5.991211,13.2016601 4.41552737,12.6899414 C2.83984375,12.1782226 1.977539,10.4858399 2.48925775,8.909668 Z M10.3125,19.4262695 C9.33886725,20.7670899 7.46240237,21.0639649 6.12207025,20.090332 C4.78173825,19.116211 4.484375,17.2402344 5.45849612,15.8999024 C6.43212887,14.5595702 8.30859375,14.262207 9.64892575,15.2363281 C10.9892577,16.209961 11.2861327,18.0859375 10.3125,19.4262695 Z M11,12 C11,11.4477539 11.4477539,11 12,11 C12.5522461,11 13,11.4477539 13,12 C13,12.5522461 12.5522461,13 12,13 C11.4477539,13 11,12.5522461 11,12 Z" transform="translate(27.402)"/>
    <path fill="#FFF" d="M4.73257212,21.2307692 L4.73257212,12.6445313 C4.73257212,11.3013822 4.63792067,9.41736779 4.44861779,6.99248798 L4.44861779,6.99248798 L4.5703125,6.99248798 L8.61328125,21.2307692 L13.6974159,21.2307692 L17.6862981,7.01953125 L17.8079928,7.01953125 C17.6998197,9.16496394 17.6389724,10.5126202 17.6254507,11.0625 C17.6119291,11.6123798 17.6051683,12.1126803 17.6051683,12.5634014 L17.6051683,12.5634014 L17.6051683,21.2307692 L22.5135216,21.2307692 L22.5135216,1.46213942 L15.3876202,1.46213942 L11.3446514,15.4975962 L11.2364784,15.4975962 L7.11237981,1.46213942 L0,1.46213942 L0,21.2307692 L4.73257212,21.2307692 Z M66.1478365,21.2307692 L72.6246995,1.46213942 L66.648137,1.46213942 L63.9032452,11.5357572 C63.7590144,12.0766226 63.5922476,12.8203125 63.4029447,13.7668269 C63.2136418,14.7133413 63.0874399,15.5021034 63.0243389,16.133113 C62.9702524,15.2587139 62.663762,13.7082332 62.1048678,11.4816707 L62.1048678,11.4816707 L59.4140625,1.46213942 L53.4104567,1.46213942 L59.8602764,21.2307692 L66.1478365,21.2307692 Z M80.1292067,21.2307692 L80.1292067,1.46213942 L74.7611178,1.46213942 L74.7611178,21.2307692 L80.1292067,21.2307692 Z M96.1388221,21.2307692 L96.1388221,16.8768029 L89.7430889,16.8768029 L89.7430889,13.1448317 L95.6655649,13.1448317 L95.6655649,8.85847356 L89.7430889,8.85847356 L89.7430889,5.7484976 L96.1388221,5.7484976 L96.1388221,1.46213942 L84.4020433,1.46213942 L84.4020433,21.2307692 L96.1388221,21.2307692 Z"/>
    <path fill="#EF233C" d="M121.868164,5.97460938 C122.223633,5.97460938 122.547363,5.87727865 122.839355,5.68261719 C123.131348,5.48795573 123.381022,5.2594401 123.588379,4.99707031 C123.795736,4.73470052 123.956543,4.46598307 124.070801,4.19091797 C124.185059,3.91585286 124.242188,3.70214844 124.242188,3.54980469 C124.233724,3.13509115 124.123698,2.75211589 123.912109,2.40087891 C123.700521,2.04964193 123.378906,1.74707031 122.947266,1.49316406 C122.515625,1.23925781 121.969727,1.04036458 121.30957,0.896484375 C120.649414,0.752604167 119.866536,0.680664062 118.960938,0.680664062 C117.911458,0.680664062 116.859863,0.74202474 115.806152,0.864746094 C114.752441,0.987467448 113.741048,1.15250651 112.771973,1.35986328 C111.802897,1.56722005 110.899414,1.80419922 110.061523,2.07080078 C109.223633,2.33740234 108.495768,2.61035156 107.87793,2.88964844 C107.260091,3.16894531 106.773438,3.4461263 106.417969,3.72119141 C106.0625,3.99625651 105.884766,4.2438151 105.884766,4.46386719 C105.884766,4.59928385 105.90804,4.73046875 105.95459,4.85742188 C106.001139,4.984375 106.064616,5.09863281 106.14502,5.20019531 C106.225423,5.30175781 106.320638,5.38216146 106.430664,5.44140625 C106.54069,5.50065104 106.663411,5.53027344 106.798828,5.53027344 C106.841146,5.53027344 106.889811,5.5218099 106.944824,5.50488281 C106.999837,5.48795573 107.056966,5.47102865 107.116211,5.45410156 C107.750977,5.24251302 108.349772,5.03304036 108.912598,4.82568359 C109.475423,4.61832682 110.031901,4.42366536 110.582031,4.24169922 C111.132161,4.05973307 111.690755,3.88834635 112.257812,3.72753906 C112.82487,3.56673177 113.434245,3.42496745 114.085938,3.30224609 C114.73763,3.17952474 115.448568,3.07796224 116.21875,2.99755859 C116.988932,2.91715495 117.852214,2.86002604 118.808594,2.82617188 C119.764974,2.82617188 120.446289,2.89176432 120.852539,3.02294922 C121.258789,3.15413411 121.461914,3.36360677 121.461914,3.65136719 C121.461914,3.75292969 121.423828,3.87988281 121.347656,4.03222656 C121.271484,4.18457031 121.188965,4.34114583 121.100098,4.50195312 C121.01123,4.66276042 120.928711,4.81298828 120.852539,4.95263672 C120.776367,5.09228516 120.738281,5.20019531 120.738281,5.27636719 C120.738281,5.42871094 120.780599,5.55143229 120.865234,5.64453125 C120.94987,5.73763021 121.053548,5.80957031 121.17627,5.86035156 C121.298991,5.91113281 121.423828,5.94287109 121.550781,5.95556641 C121.677734,5.96826172 121.783529,5.97460938 121.868164,5.97460938 Z M107.154297,19.9394531 C107.340495,19.9394531 107.539388,19.9077148 107.750977,19.8442383 C107.962565,19.7807617 108.169922,19.6855469 108.373047,19.5585938 C108.576172,19.4316406 108.766602,19.2708333 108.944336,19.0761719 C109.12207,18.8815104 109.274414,18.6572266 109.401367,18.4033203 C109.536784,18.1748047 109.708171,17.8595378 109.915527,17.4575195 C110.122884,17.0555013 110.355632,16.5963542 110.61377,16.0800781 C110.871908,15.5638021 111.151204,15.0030924 111.45166,14.3979492 C111.752116,13.792806 112.058919,13.1665039 112.37207,12.519043 C112.685221,11.871582 113.002604,11.2198893 113.324219,10.5639648 C113.645833,9.90804036 113.954753,9.27327474 114.250977,8.65966797 C114.547201,8.0460612 114.828613,7.46630859 115.095215,6.92041016 C115.361816,6.37451172 115.600911,5.88574219 115.8125,5.45410156 C115.905599,5.26790365 115.952148,5.08170573 115.952148,4.89550781 C115.952148,4.66699219 115.880208,4.46809896 115.736328,4.29882812 C115.592448,4.12955729 115.372396,4.04492188 115.076172,4.04492188 C114.932292,4.04492188 114.705892,4.21419271 114.396973,4.55273438 C114.088053,4.89127604 113.715658,5.37158203 113.279785,5.99365234 C112.843913,6.61572266 112.359375,7.36474609 111.826172,8.24072266 C111.292969,9.11669922 110.728027,10.0878906 110.131348,11.1542969 C109.534668,12.2207031 108.916829,13.367513 108.277832,14.5947266 C107.638835,15.8219401 106.997721,17.0999349 106.354492,18.4287109 C106.286784,18.5641276 106.24235,18.6889648 106.221191,18.8032227 C106.200033,18.9174805 106.189453,19.0211589 106.189453,19.1142578 C106.189453,19.3850911 106.282552,19.590332 106.46875,19.7299805 C106.654948,19.8696289 106.883464,19.9394531 107.154297,19.9394531 Z M119.760742,8.91992188 C120.040039,8.91992188 120.28125,8.86490885 120.484375,8.75488281 C120.6875,8.64485677 120.852539,8.50732422 120.979492,8.34228516 C121.106445,8.17724609 121.20166,7.99739583 121.265137,7.80273438 C121.328613,7.60807292 121.360352,7.43033854 121.360352,7.26953125 C121.360352,6.98177083 121.263021,6.74267578 121.068359,6.55224609 C120.873698,6.36181641 120.530924,6.26660156 120.040039,6.26660156 C119.743815,6.26660156 119.487793,6.32161458 119.271973,6.43164062 C119.056152,6.54166667 118.876302,6.6813151 118.732422,6.85058594 C118.588542,7.01985677 118.480632,7.20817057 118.408691,7.41552734 C118.336751,7.62288411 118.300781,7.82389323 118.300781,8.01855469 C118.326172,8.28938802 118.444661,8.50732422 118.65625,8.67236328 C118.867839,8.83740234 119.236003,8.91992188 119.760742,8.91992188 Z M116.650391,19.3173828 C117.132812,19.3173828 117.611003,19.2242839 118.084961,19.0380859 C118.558919,18.851888 119.030762,18.6043294 119.500488,18.2954102 C119.970215,17.9864909 120.429362,17.6310221 120.87793,17.2290039 C121.326497,16.8269857 121.766602,16.4059245 122.198242,15.9658203 C122.418294,15.7711589 122.576986,15.5638021 122.674316,15.34375 C122.771647,15.1236979 122.820312,14.9163411 122.820312,14.7216797 C122.820312,14.5100911 122.771647,14.3365885 122.674316,14.2011719 C122.576986,14.0657552 122.452148,13.9980469 122.299805,13.9980469 C122.130534,13.9980469 121.961263,14.0784505 121.791992,14.2392578 C121.665039,14.3916016 121.506348,14.5651042 121.315918,14.7597656 C121.125488,14.9544271 120.918132,15.1575521 120.693848,15.3691406 C120.469564,15.5807292 120.230469,15.7902018 119.976562,15.9975586 C119.722656,16.2049154 119.464518,16.3889974 119.202148,16.5498047 C118.939779,16.710612 118.679525,16.8417969 118.421387,16.9433594 C118.163249,17.0449219 117.91569,17.0957031 117.678711,17.0957031 C117.467122,17.0957031 117.304199,17.0597331 117.189941,16.987793 C117.075684,16.9158529 117.018555,16.765625 117.018555,16.5371094 C117.018555,16.3255208 117.058757,16.0927734 117.13916,15.8388672 C117.219564,15.5849609 117.316895,15.3268229 117.431152,15.0644531 C117.54541,14.8020833 117.666016,14.5460612 117.792969,14.2963867 C117.919922,14.0467122 118.03418,13.8160807 118.135742,13.6044922 C118.220378,13.4267578 118.292318,13.2744141 118.351562,13.1474609 C118.410807,13.0205078 118.472168,12.8914388 118.535645,12.7602539 C118.599121,12.629069 118.668945,12.4873047 118.745117,12.3349609 C118.821289,12.1826172 118.91862,11.9964193 119.037109,11.7763672 C119.079427,11.7001953 119.106934,11.6240234 119.119629,11.5478516 C119.132324,11.4716797 119.142904,11.3955078 119.151367,11.3193359 C119.151367,10.9977214 119.034993,10.7332357 118.802246,10.5258789 C118.569499,10.3185221 118.292318,10.2148438 117.970703,10.2148438 C117.776042,10.2148438 117.585612,10.265625 117.399414,10.3671875 C117.213216,10.46875 117.048177,10.6380208 116.904297,10.875 C116.751953,11.188151 116.608073,11.484375 116.472656,11.7636719 C116.354167,12.000651 116.242025,12.2333984 116.13623,12.4619141 C116.030436,12.6904297 115.95638,12.8597005 115.914062,12.9697266 C115.795573,13.2659505 115.651693,13.5769857 115.482422,13.902832 C115.313151,14.2286784 115.152344,14.5672201 115,14.918457 C114.847656,15.269694 114.716471,15.6315104 114.606445,16.0039062 C114.496419,16.3763021 114.441406,16.7571615 114.441406,17.1464844 C114.441406,17.891276 114.638184,18.4392904 115.031738,18.7905273 C115.425293,19.1417643 115.964844,19.3173828 116.650391,19.3173828 Z M123.163086,19.3173828 C123.730143,19.3173828 124.305664,19.2306315 124.889648,19.0571289 C125.473633,18.8836263 126.038574,18.6656901 126.584473,18.4033203 C127.130371,18.1409505 127.642415,17.8510742 128.120605,17.5336914 C128.598796,17.2163086 129.021973,16.9179688 129.390137,16.6386719 C129.758301,16.359375 130.058757,16.1160482 130.291504,15.9086914 C130.524251,15.7013346 130.661784,15.5722656 130.704102,15.5214844 C130.814128,15.3860677 130.877604,15.2654622 130.894531,15.159668 C130.911458,15.0538737 130.919922,14.9628906 130.919922,14.8867188 C130.919922,14.8359375 130.911458,14.7745768 130.894531,14.7026367 C130.877604,14.6306966 130.847982,14.5629883 130.805664,14.4995117 C130.763346,14.4360352 130.706217,14.3810221 130.634277,14.3344727 C130.562337,14.2879232 130.475586,14.2646484 130.374023,14.2646484 C130.255534,14.2646484 130.128581,14.2985026 129.993164,14.3662109 C129.925456,14.4000651 129.781576,14.4910482 129.561523,14.6391602 C129.341471,14.7872721 129.068522,14.9650065 128.742676,15.1723633 C128.416829,15.3797201 128.055013,15.5976562 127.657227,15.8261719 C127.25944,16.0546875 126.846842,16.266276 126.419434,16.4609375 C125.992025,16.655599 125.5625,16.8164062 125.130859,16.9433594 C124.699219,17.0703125 124.292969,17.1337891 123.912109,17.1337891 C123.556641,17.1337891 123.275228,17.0491536 123.067871,16.8798828 C122.860514,16.710612 122.756836,16.4778646 122.756836,16.1816406 C122.756836,15.9785156 122.809733,15.7330729 122.915527,15.4453125 C123.021322,15.1575521 123.165202,14.8592122 123.347168,14.550293 C123.529134,14.2413737 123.734375,13.9366862 123.962891,13.6362305 C124.191406,13.3357747 124.42627,13.0670573 124.66748,12.8300781 C124.908691,12.593099 125.149902,12.4005534 125.391113,12.2524414 C125.632324,12.1043294 125.85026,12.0302734 126.044922,12.0302734 C126.214193,12.0302734 126.319987,12.0831706 126.362305,12.1889648 C126.404622,12.2947591 126.425781,12.4238281 126.425781,12.5761719 C126.425781,12.7115885 126.423665,12.8533529 126.419434,13.0014648 C126.415202,13.1495768 126.413086,13.2617188 126.413086,13.3378906 C126.413086,13.4648438 126.436361,13.5537109 126.48291,13.6044922 C126.52946,13.6552734 126.63737,13.6806641 126.806641,13.6806641 C127.119792,13.6806641 127.382161,13.5875651 127.59375,13.4013672 C127.805339,13.2151693 127.978841,12.9824219 128.114258,12.703125 C128.249674,12.4238281 128.347005,12.1254883 128.40625,11.8081055 C128.465495,11.4907227 128.495117,11.2008464 128.495117,10.9384766 C128.495117,10.726888 128.459147,10.5449219 128.387207,10.3925781 C128.315267,10.2402344 128.217936,10.1196289 128.095215,10.0307617 C127.972493,9.94189453 127.828613,9.87630208 127.663574,9.83398438 C127.498535,9.79166667 127.322917,9.77050781 127.136719,9.77050781 C126.586589,9.77050781 126.042806,9.8889974 125.505371,10.1259766 C124.967936,10.3629557 124.45166,10.6761068 123.956543,11.0654297 C123.461426,11.4547526 123.002279,11.8990885 122.579102,12.3984375 C122.155924,12.8977865 121.78776,13.405599 121.474609,13.921875 C121.161458,14.438151 120.916016,14.9438477 120.738281,15.4389648 C120.560547,15.934082 120.47168,16.3720703 120.47168,16.7529297 C120.47168,17.0999349 120.530924,17.430013 120.649414,17.7431641 C120.767904,18.0563151 120.941406,18.3292643 121.169922,18.5620117 C121.398438,18.7947591 121.67985,18.9788411 122.01416,19.1142578 C122.34847,19.2496745 122.731445,19.3173828 123.163086,19.3173828 Z M134.588867,19.3173828 C135.282878,19.3173828 135.959961,19.2179362 136.620117,19.019043 C137.280273,18.8201497 137.923503,18.5662435 138.549805,18.2573242 C139.176107,17.9484049 139.785482,17.6077474 140.37793,17.2353516 C140.970378,16.8629557 141.55013,16.5032552 142.117188,16.15625 C142.523438,15.8854167 142.813314,15.5997721 142.986816,15.2993164 C143.160319,14.9988607 143.24707,14.7301432 143.24707,14.4931641 C143.24707,14.2985026 143.200521,14.1419271 143.107422,14.0234375 C143.014323,13.9049479 142.88737,13.8457031 142.726562,13.8457031 C142.599609,13.8457031 142.464193,13.8880208 142.320312,13.9726562 C141.431641,14.5143229 140.646647,14.9840495 139.965332,15.3818359 C139.284017,15.7796224 138.678874,16.1075846 138.149902,16.3657227 C137.620931,16.6238607 137.157552,16.8164062 136.759766,16.9433594 C136.361979,17.0703125 136.00651,17.1337891 135.693359,17.1337891 C135.532552,17.1337891 135.42041,17.097819 135.356934,17.0258789 C135.293457,16.9539388 135.261719,16.8671875 135.261719,16.765625 C135.261719,16.7063802 135.282878,16.6323242 135.325195,16.543457 C135.367513,16.4545898 135.424642,16.3657227 135.496582,16.2768555 C135.568522,16.1879883 135.655273,16.1033529 135.756836,16.0229492 C135.858398,15.9425456 135.968424,15.8769531 136.086914,15.8261719 C136.552409,15.639974 137.028483,15.4135742 137.515137,15.1469727 C138.00179,14.8803711 138.44401,14.5735677 138.841797,14.2265625 C139.239583,13.8795573 139.563314,13.4860026 139.812988,13.0458984 C140.062663,12.6057943 140.1875,12.1149089 140.1875,11.5732422 C140.1875,11.2431641 140.111328,10.9638672 139.958984,10.7353516 C139.806641,10.5068359 139.609863,10.320638 139.368652,10.1767578 C139.127441,10.0328776 138.858724,9.92919922 138.5625,9.86572266 C138.266276,9.80224609 137.978516,9.77050781 137.699219,9.77050781 C137.22526,9.77050781 136.772461,9.85091146 136.34082,10.0117188 C135.90918,10.172526 135.496582,10.3819987 135.103027,10.6401367 C134.709473,10.8982747 134.332845,11.1902669 133.973145,11.5161133 C133.613444,11.8419596 133.272786,12.1699219 132.951172,12.5 C133.315104,11.8652344 133.674805,11.1902669 134.030273,10.4750977 C134.385742,9.75992839 134.736979,9.03417969 135.083984,8.29785156 C135.43099,7.56152344 135.780111,6.83577474 136.131348,6.12060547 C136.482585,5.4054362 136.835938,4.73046875 137.191406,4.09570312 C137.309896,3.91796875 137.413574,3.72753906 137.502441,3.52441406 C137.591309,3.32128906 137.635742,3.1266276 137.635742,2.94042969 C137.635742,2.73730469 137.561686,2.56380208 137.413574,2.41992188 C137.265462,2.27604167 137.000977,2.20410156 136.620117,2.20410156 C136.467773,2.20410156 136.317546,2.2273763 136.169434,2.27392578 C136.021322,2.32047526 135.881673,2.38395182 135.750488,2.46435547 C135.619303,2.54475911 135.500814,2.63574219 135.39502,2.73730469 C135.289225,2.83886719 135.210938,2.94466146 135.160156,3.0546875 L135.160156,3.0546875 L131.148438,11.2431641 C131.013021,11.5224609 130.84375,11.871582 130.640625,12.2905273 C130.4375,12.7094727 130.22168,13.1580404 129.993164,13.6362305 C129.764648,14.1144206 129.534017,14.6031901 129.30127,15.1025391 C129.068522,15.601888 128.856934,16.0716146 128.666504,16.5117188 C128.476074,16.9518229 128.317383,17.3453776 128.19043,17.6923828 C128.063477,18.039388 127.991536,18.297526 127.974609,18.4667969 C127.966146,18.5091146 127.961914,18.5472005 127.961914,18.5810547 L127.961914,18.5810547 L127.961914,18.6826172 C127.961914,18.9280599 128.016927,19.0952148 128.126953,19.184082 C128.236979,19.2729492 128.414714,19.3173828 128.660156,19.3173828 C129.176432,19.3173828 129.764648,18.944987 130.424805,18.2001953 C130.644857,17.9124349 130.869141,17.6098633 131.097656,17.2924805 C131.326172,16.9750977 131.565267,16.6471354 131.814941,16.3085938 C132.064616,15.9700521 132.333333,15.6251628 132.621094,15.2739258 C132.908854,14.9226888 133.226237,14.5608724 133.573242,14.1884766 C135.09668,12.555013 136.281576,11.7382812 137.12793,11.7382812 C137.356445,11.7382812 137.470703,11.8610026 137.470703,12.1064453 C137.470703,12.2587891 137.430501,12.4090169 137.350098,12.5571289 C137.269694,12.7052409 137.159668,12.851237 137.02002,12.9951172 C136.880371,13.1389974 136.72168,13.2786458 136.543945,13.4140625 C136.366211,13.5494792 136.175781,13.6764323 135.972656,13.7949219 C135.710286,13.9726562 135.397135,14.1736654 135.033203,14.3979492 C134.669271,14.6222331 134.32015,14.8909505 133.98584,15.2041016 C133.65153,15.5172526 133.368001,15.8833008 133.135254,16.3022461 C132.902507,16.7211914 132.786133,17.2057292 132.786133,17.7558594 C132.786133,18.796875 133.387044,19.3173828 134.588867,19.3173828 Z M143.945312,19.3173828 C144.53776,19.3173828 145.138672,19.2390951 145.748047,19.0825195 C146.357422,18.925944 146.943522,18.7291667 147.506348,18.4921875 C148.069173,18.2552083 148.602376,17.9949544 149.105957,17.7114258 C149.609538,17.4278971 150.051758,17.1591797 150.432617,16.9052734 C150.813477,16.6513672 151.124512,16.4313151 151.365723,16.2451172 C151.606934,16.0589193 151.748698,15.9446615 151.791016,15.9023438 C151.901042,15.7669271 151.964518,15.6463216 151.981445,15.5405273 C151.998372,15.4347331 152.006836,15.34375 152.006836,15.2675781 C152.006836,15.2167969 151.998372,15.1554362 151.981445,15.0834961 C151.964518,15.011556 151.93278,14.9438477 151.88623,14.8803711 C151.839681,14.8168945 151.782552,14.7618815 151.714844,14.715332 C151.647135,14.6687826 151.5625,14.6455078 151.460938,14.6455078 C151.410156,14.6455078 151.353027,14.6497396 151.289551,14.6582031 C151.226074,14.6666667 151.15625,14.6962891 151.080078,14.7470703 C151.003906,14.7809245 150.853678,14.8655599 150.629395,15.0009766 C150.405111,15.1363932 150.125814,15.2972005 149.791504,15.4833984 C149.457194,15.6695964 149.082682,15.8663737 148.667969,16.0737305 C148.253255,16.2810872 147.827962,16.4736328 147.39209,16.6513672 C146.956217,16.8291016 146.516113,16.9750977 146.071777,17.0893555 C145.627441,17.2036133 145.210612,17.2607422 144.821289,17.2607422 C144.457357,17.2607422 144.165365,17.190918 143.945312,17.0512695 C143.72526,16.9116211 143.594076,16.7190755 143.551758,16.4736328 C144.702799,16.0504557 145.661296,15.6293945 146.427246,15.2104492 C147.193197,14.7915039 147.804688,14.3810221 148.261719,13.9790039 C148.71875,13.5769857 149.040365,13.1813151 149.226562,12.7919922 C149.41276,12.4026693 149.505859,12.0302734 149.505859,11.6748047 C149.505859,11.0738932 149.332357,10.6041667 148.985352,10.265625 C148.638346,9.92708333 148.113607,9.7578125 147.411133,9.7578125 C146.742513,9.7578125 146.114095,9.85514323 145.525879,10.0498047 C144.937663,10.2444661 144.398112,10.5026042 143.907227,10.8242188 C143.416341,11.1458333 142.974121,11.5161133 142.580566,11.9350586 C142.187012,12.3540039 141.854818,12.7835286 141.583984,13.2236328 C141.313151,13.663737 141.105794,14.1017253 140.961914,14.5375977 C140.818034,14.9734701 140.746094,15.3733724 140.746094,15.7373047 C140.746094,16.211263 140.818034,16.6640625 140.961914,17.0957031 C141.105794,17.5273438 141.315267,17.9082031 141.590332,18.2382812 C141.865397,18.5683594 142.199707,18.8307292 142.593262,19.0253906 C142.986816,19.2200521 143.4375,19.3173828 143.945312,19.3173828 Z M143.361328,15.0136719 C143.412109,14.8528646 143.486165,14.6539714 143.583496,14.4169922 C143.680827,14.180013 143.801432,13.9324544 143.945312,13.6743164 C144.089193,13.4161784 144.252116,13.1559245 144.434082,12.8935547 C144.616048,12.6311849 144.823405,12.3963216 145.056152,12.1889648 C145.2889,11.9816081 145.544922,11.8144531 145.824219,11.6875 C146.103516,11.5605469 146.403971,11.4970703 146.725586,11.4970703 L146.725586,11.4970703 L146.839844,11.4970703 C146.873698,11.4970703 146.911784,11.5013021 146.954102,11.5097656 C147.055664,11.5266927 147.146647,11.5732422 147.227051,11.6494141 C147.307454,11.7255859 147.347656,11.8271484 147.347656,11.9541016 C147.347656,12.1064453 147.275716,12.2862956 147.131836,12.4936523 C146.987956,12.7010091 146.725586,12.9231771 146.344727,13.1601562 C146.260091,13.2109375 146.114095,13.3082682 145.906738,13.4521484 C145.699382,13.5960286 145.456055,13.7568359 145.176758,13.9345703 C144.897461,14.1123047 144.599121,14.2985026 144.281738,14.4931641 C143.964355,14.6878255 143.657552,14.8613281 143.361328,15.0136719 Z M151.664062,19.3173828 C152.171875,19.3173828 152.696615,19.2158203 153.238281,19.0126953 C153.779948,18.8095703 154.327962,18.5366211 154.882324,18.1938477 C155.436686,17.8510742 155.99528,17.4554036 156.558105,17.0068359 C157.120931,16.5582682 157.677409,16.0843099 158.227539,15.5849609 C158.472982,15.3902995 158.642253,15.1914062 158.735352,14.9882812 C158.828451,14.7851562 158.875,14.586263 158.875,14.3916016 C158.875,14.1969401 158.828451,14.0361328 158.735352,13.9091797 C158.642253,13.7822266 158.523763,13.71875 158.379883,13.71875 C158.261393,13.71875 158.13444,13.7652995 157.999023,13.8583984 C157.762044,14.0615234 157.491211,14.2836914 157.186523,14.5249023 C156.881836,14.7661133 156.562337,15.0073242 156.228027,15.2485352 C155.893717,15.4897461 155.55306,15.7224935 155.206055,15.9467773 C154.859049,16.1710612 154.528971,16.3699544 154.21582,16.543457 C153.902669,16.7169596 153.610677,16.8566081 153.339844,16.9624023 C153.06901,17.0681966 152.844727,17.1210938 152.666992,17.1210938 C152.540039,17.1210938 152.449056,17.0872396 152.394043,17.0195312 C152.33903,16.9518229 152.311523,16.858724 152.311523,16.7402344 C152.311523,16.5371094 152.360189,16.3022461 152.45752,16.0356445 C152.55485,15.769043 152.654297,15.5341797 152.755859,15.3310547 C153.001302,14.8401693 153.263672,14.3048503 153.542969,13.7250977 C153.822266,13.1453451 154.11849,12.5507812 154.431641,11.9414062 L154.431641,11.9414062 L159.712891,11.9033203 C159.932943,11.8863932 160.112793,11.8525391 160.252441,11.8017578 C160.39209,11.7509766 160.502116,11.6875 160.58252,11.6113281 C160.662923,11.5351562 160.717936,11.4505208 160.747559,11.3574219 C160.777181,11.2643229 160.791992,11.171224 160.791992,11.078125 C160.791992,10.8919271 160.758138,10.7438151 160.69043,10.6337891 C160.622721,10.523763 160.527507,10.4370117 160.404785,10.3735352 C160.282064,10.3100586 160.136068,10.2677409 159.966797,10.246582 C159.797526,10.2254232 159.611328,10.2148438 159.408203,10.2148438 L159.408203,10.2148438 L155.269531,10.2148438 C155.591146,9.61393229 155.895833,9.04264323 156.183594,8.50097656 C156.310547,8.27246094 156.439616,8.03548177 156.570801,7.79003906 C156.701986,7.54459635 156.828939,7.30973307 156.95166,7.08544922 C157.074382,6.86116536 157.190755,6.64957682 157.300781,6.45068359 C157.410807,6.25179036 157.503906,6.08040365 157.580078,5.93652344 C157.698568,5.71647135 157.793783,5.52392578 157.865723,5.35888672 C157.937663,5.19384766 157.973633,5.03092448 157.973633,4.87011719 C157.973633,4.55696615 157.867839,4.33268229 157.65625,4.19726562 C157.444661,4.06184896 157.211914,3.99414062 156.958008,3.99414062 C156.687174,3.99414062 156.426921,4.06396484 156.177246,4.20361328 C155.927572,4.34326172 155.718099,4.57389323 155.548828,4.89550781 L155.548828,4.89550781 L152.870117,10.2148438 L151.499023,10.2148438 C151.304362,10.2148438 151.130859,10.2529297 150.978516,10.3291016 C150.826172,10.4052734 150.697103,10.4962565 150.591309,10.6020508 C150.485514,10.7078451 150.405111,10.8221029 150.350098,10.9448242 C150.295085,11.0675456 150.267578,11.171224 150.267578,11.2558594 C150.267578,11.4505208 150.356445,11.6240234 150.53418,11.7763672 C150.711914,11.9287109 151.03776,12.0048828 151.511719,12.0048828 L151.511719,12.0048828 L152.057617,12.0048828 C151.820638,12.4788411 151.577311,12.9739583 151.327637,13.4902344 C151.077962,14.0065104 150.826172,14.5270182 150.572266,15.0517578 C150.394531,15.4156901 150.233724,15.8261719 150.089844,16.2832031 C149.945964,16.7402344 149.874023,17.1803385 149.874023,17.6035156 C149.874023,17.8404948 149.903646,18.0626628 149.962891,18.2700195 C150.022135,18.4773763 150.121582,18.6593424 150.26123,18.815918 C150.400879,18.9724935 150.584961,19.0952148 150.813477,19.184082 C151.041992,19.2729492 151.325521,19.3173828 151.664062,19.3173828 Z"/>
  </g>
</svg>
