<svg xmlns="http://www.w3.org/2000/svg" width="22" height="16" viewBox="0 0 22 16">
  <path fill="#FFF" d="M20 6.77777778C20.5522847 6.77777778 21 7.22549303 21 7.77777778 21 8.29061362 20.6139598 8.71328494 20.1166211 8.77105005L20 8.77777778 0 8.77777778C-.55228475 8.77777778-1 8.33006253-1 7.77777778-1 7.26494194-.61395981 6.84227062-.116621125 6.78450551L0 6.77777778 20 6.77777778zM20 .111111111C20.5522847.111111111 21 .558826361 21 1.11111111 21 1.62394695 20.6139598 2.04661827 20.1166211 2.10438338L20 2.11111111 0 2.11111111C-.55228475 2.11111111-1 1.66339586-1 1.11111111-1 .598275272-.61395981.17560395-.116621125.117838842L0 .111111111 20 .111111111zM20 13.4444444C20.5522847 13.4444444 21 13.8921597 21 14.4444444 21 14.9572803 20.6139598 15.3799516 20.1166211 15.4377167L20 15.4444444 0 15.4444444C-.55228475 15.4444444-1 14.9967292-1 14.4444444-1 13.9316086-.61395981 13.5089373-.116621125 13.4511722L0 13.4444444 20 13.4444444z" transform="translate(1)"/>
</svg>
