<svg xmlns="http://www.w3.org/2000/svg" width="18" height="18" viewBox="0 0 18 18">
  <g fill="#8C8C8C">
    <path d="M8.11111111,0.5 C3.90761052,0.5 0.5,3.90761052 0.5,8.11111111 C0.5,12.3146117 3.90761052,15.7222222 8.11111111,15.7222222 C12.3146117,15.7222222 15.7222222,12.3146117 15.7222222,8.11111111 C15.7222222,3.90761052 12.3146117,0.5 8.11111111,0.5 Z M8.11111111,1.5 C11.762327,1.5 14.7222222,4.45989527 14.7222222,8.11111111 C14.7222222,11.762327 11.762327,14.7222222 8.11111111,14.7222222 C4.45989527,14.7222222 1.5,11.762327 1.5,8.11111111 C1.5,4.45989527 4.45989527,1.5 8.11111111,1.5 Z"/>
    <path d="M12.7797799,12.7797799 C12.9533463,12.6062136 13.2227707,12.5869284 13.4176388,12.7219245 L13.4868867,12.7797799 L17.3535534,16.6464466 C17.5488155,16.8417088 17.5488155,17.1582912 17.3535534,17.3535534 C17.179987,17.5271197 16.9105626,17.5464049 16.7156945,17.4114088 L16.6464466,17.3535534 L12.7797799,13.4868867 C12.5845178,13.2916246 12.5845178,12.9750421 12.7797799,12.7797799 Z"/>
  </g>
</svg>
