<svg xmlns="http://www.w3.org/2000/svg" width="20" height="20" viewBox="0 0 20 20">
  <g fill="#D8D8D8" fill-rule="evenodd">
    <path d="M16,0 C17.1045695,5.56104062e-16 18,0.8954305 18,2 L18.0010775,8.04596592 C17.7066608,7.87541008 17.364732,7.77777778 17,7.77777778 C15.8954305,7.77777778 15,8.67320828 15,9.77777778 L15,9.77777778 L15,14.4437778 L5,14.4437778 L5,9.77777778 C5,8.67320828 4.1045695,7.77777778 3,7.77777778 L3,7.77777778 L3,2 C3,0.8954305 3.8954305,2.02906125e-16 5,0 L16,0 Z"/>
    <path d="M20,18 C20,19.0543618 19.1841222,19.9181651 18.1492623,19.9945143 L18,20 L18,20 L2,20 L2,20 C0.8954305,20 1.3527075e-16,19.1045695 0,18 L0,10.8888889 C-1.3527075e-16,9.78431939 0.8954305,8.88888889 2,8.88888889 C3.1045695,8.88888889 4,9.78431939 4,10.8888889 L4,15.5548889 L16,15.5548889 L16,10.8888889 C16,9.78431939 16.8954305,8.88888889 18,8.88888889 C19.1045695,8.88888889 20,9.78431939 20,10.8888889 L20,18 Z"/>
  </g>
</svg>
