<svg xmlns="http://www.w3.org/2000/svg" width="16" height="16" viewBox="0 0 16 16">
  <g fill="#8C8C8C" transform="translate(1 1)">
    <path d="M7,-0.5 C2.85786438,-0.5 -0.5,2.85786438 -0.5,7 C-0.5,11.1421356 2.85786438,14.5 7,14.5 C11.1421356,14.5 14.5,11.1421356 14.5,7 C14.5,2.85786438 11.1421356,-0.5 7,-0.5 Z M7,0.5 C10.5898509,0.5 13.5,3.41014913 13.5,7 C13.5,10.5898509 10.5898509,13.5 7,13.5 C3.41014913,13.5 0.5,10.5898509 0.5,7 C0.5,3.41014913 3.41014913,0.5 7,0.5 Z"/>
    <path d="M7,2.3 C7.24545989,2.3 7.44960837,2.47687516 7.49194433,2.71012437 L7.5,2.8 L7.5,6.691 L10.0236068,7.9527864 C10.2431528,8.0625594 10.3466478,8.31205933 10.280202,8.53961698 L10.2472136,8.6236068 C10.1374406,8.8431528 9.88794067,8.94664777 9.66038302,8.88020199 L9.5763932,8.8472136 L6.7763932,7.4472136 C6.63523319,7.37663359 6.53740014,7.24464001 6.50871024,7.0930043 L6.5,7 L6.5,2.8 C6.5,2.52385763 6.72385763,2.3 7,2.3 Z"/>
  </g>
</svg>
